<svg xmlns="http://www.w3.org/2000/svg" xml:space="preserve" version="1.1" viewBox="0 0 512 512" fill="#34a99e"><path d="M176 0c-26.5 0-48 21.5-48 48v48H64c-35.3 0-64 28.7-64 64v256c0 35.3 28.7 64 64 64h384c35.3 0 64-28.7 64-64V160c0-35.3-28.7-64-64-64h-64V48c0-26.5-21.5-48-48-48H176zm0 32h160c8.8 0 16 7.2 16 16v48H160V48c0-8.8 7.2-16 16-16zM64 128h384c17.7 0 32 14.3 32 32v256c0 17.7-14.3 32-32 32h-85.27c6.013-19.987 7.44-42.393 3.15-65.273-9.322-49.728-42.973-87.61-83.019-99.135-4.794-1.38-8.405-5.472-9.484-10.342-.945-4.268.108-8.794 3.375-11.697 26.052-23.15 57.308-40.438 91.633-49.944 1.627-.45 1.437-2.803-.248-2.894-36.566-1.972-71.115 7.45-100.207 25.174-6.807 4.147-15.58 3.227-22.184-1.239-9.203-6.226-20.099-10.214-31.965-11.123-36.465-2.794-68.294 24.546-71.092 61.065-1.46 19.064 5.28 36.86 17.243 49.916 5.073 5.536 7.265 13.44 4.937 20.578-6.744 20.684-8.51 44.123-4.017 68.08A143.393 143.393 0 0 0 168.66 448H64c-17.7 0-32-14.3-32-32V160c0-17.7 14.3-32 32-32zm158.555 129.674a8.63 8.429 0 0 1 8.629 8.428 8.63 8.429 0 0 1-8.63 8.43 8.63 8.429 0 0 1-8.628-8.43 8.63 8.429 0 0 1 8.629-8.428z"/></svg>