<svg viewBox="0 0 512 512"  xmlns="http://www.w3.org/2000/svg">
<style>
    path {
      fill: #4dacff;
    }
    @media (prefers-color-scheme: dark) {
      path {
      fill: #ffffff;
    }
    }
  </style>
<path d="M69.796 480.767c-23.301-22.914-28.256-55.651-11.071-73.126 21.022-21.376 41.655-.165 57.16-15.932 8.725-8.872 8.606-23.123-.293-31.874l-89.381-87.899c-11.648-11.454-11.804-30.189-.35-41.836L72.3 182.878c8.725-8.872 22.975-8.991 31.874-.24 16.149 15.881-5.451 36.131 15.906 57.134 17.474 17.184 50.21 12.23 73.126-11.072 22.914-23.3 27.32-56.116 9.846-73.3-21.376-21.022-41.651.531-57.418-14.974-8.873-8.726-8.992-22.976-.24-31.875l87.898-89.381c11.454-11.648 30.19-11.804 41.836-.35l89.382 87.899c8.899 8.751 9.012 23.008.293 31.874-15.357 15.615-36.158-5.425-57.16 15.932-17.178 17.468-12.197 50.244 11.071 73.126 23.268 22.882 56.716 27.898 73.894 10.43 21.022-21.376-.531-41.652 14.974-57.419 8.719-8.865 22.382-9.574 31.281-.823l47.222 46.438c11.647 11.454 11.21 29.606-.243 41.253l-87.9 89.382c-7.59 10.04-8.064 23.706.834 32.457 15.616 15.357 36.062-6.028 57.419 14.974 17.474 17.185 12.475 49.417-10.44 72.718-22.915 23.301-55.652 28.256-72.533 11.655-21.376-21.022-.165-41.655-15.932-57.16-8.866-8.72-23.13-8.6-31.848.266l-46.439 47.222c-11.454 11.647-30.188 11.804-41.242.933l-47.222-46.439c-8.866-8.718-23.13-8.599-31.848.267-15.357 15.615 6.028 36.062-14.974 57.418-17.205 17.442-50.653 12.426-73.92-10.456z"/></svg>